<svg width="611" height="143" viewBox="0 0 611 143" fill="none" xmlns="http://www.w3.org/2000/svg">
<rect x="28" y="25" width="6" height="92" rx="3" fill="#341A7E"/>
<rect x="57" y="25" width="6" height="92" rx="3" fill="#341A7E"/>
<rect x="0.0012207" y="88.0192" width="6" height="92" rx="3" transform="rotate(-90.0119 0.0012207 88.0192)" fill="#341A7E"/>
<rect x="0.0012207" y="58.0192" width="6" height="92" rx="3" transform="rotate(-90.0119 0.0012207 58.0192)" fill="#341A7E"/>
<rect width="3.24416" height="30.0565" rx="1.62208" transform="matrix(0.751752 -0.659446 0.68899 0.724771 66 93.1393)" fill="#10CFCF"/>
<rect width="3.25238" height="29.9796" rx="1.62619" transform="matrix(-0.792237 -0.610214 0.640808 -0.767702 68.2565 115)" fill="#10CFCF"/>
<circle cx="13.5" cy="37.5" r="11.5" fill="#C8CB29"/>
<path d="M169.801 36.9961C169.254 37.543 168.707 38.0898 168.16 38.6367C167.613 39.1445 167.184 39.7891 166.871 40.5703C166.402 40.6484 165.914 40.7461 165.406 40.8633C164.898 40.9805 164.41 41.0391 163.941 41.0391C163.629 41.0391 163.316 41 163.004 40.9219C162.691 40.8047 162.379 40.7461 162.066 40.7461C161.793 40.7461 161.656 40.8828 161.656 41.1562C161.656 41.4297 161.578 41.6445 161.422 41.8008C161.109 41.6836 160.777 41.6055 160.426 41.5664C160.074 41.5273 159.723 41.5078 159.371 41.5078C158.551 41.5078 157.73 41.6445 156.91 41.918C156.129 42.1523 155.348 42.4453 154.566 42.7969C153.785 43.1094 153.004 43.4414 152.223 43.793C151.441 44.1445 150.641 44.418 149.82 44.6133C149.859 44.6523 149.879 44.75 149.879 44.9062C149.879 45.1797 149.801 45.4141 149.645 45.6094C149.488 45.7656 149.41 45.9805 149.41 46.2539V46.4297C149.879 47.4453 150.348 48.4219 150.816 49.3594C151.285 50.2969 151.734 51.2734 152.164 52.2891C152.398 52.7969 152.594 53.2852 152.75 53.7539C152.906 54.2227 153.082 54.7305 153.277 55.2773C153.355 55.5898 153.492 55.8047 153.688 55.9219C153.883 56 154.078 56.1367 154.273 56.332C154.195 56.5664 154.156 56.7812 154.156 56.9766C154.156 57.7188 154.332 58.4414 154.684 59.1445C155.035 59.8086 155.211 60.4922 155.211 61.1953C155.211 61.3906 155.172 61.6445 155.094 61.957C155.562 62.6211 155.895 63.3828 156.09 64.2422C156.285 65.1016 156.461 65.9805 156.617 66.8789C156.773 67.7383 156.93 68.5977 157.086 69.457C157.281 70.2773 157.613 71.0195 158.082 71.6836C157.809 72.1523 157.633 72.6602 157.555 73.207C157.477 73.7148 157.438 74.2422 157.438 74.7891C157.438 76.0391 157.555 77.3086 157.789 78.5977C158.062 79.8477 158.199 81.0977 158.199 82.3477C158.199 83.207 158.102 83.9102 157.906 84.457C157.984 85.043 158.18 85.4727 158.492 85.7461C158.336 86.0195 158.277 86.3516 158.316 86.7422C158.355 87.0938 158.277 87.4062 158.082 87.6797C158.277 88.4609 158.375 89.1836 158.375 89.8477C158.375 90.8242 158.238 91.8008 157.965 92.7773C157.73 93.7148 157.613 94.6914 157.613 95.707C157.613 95.9805 157.633 96.2344 157.672 96.4688C157.711 96.7422 157.789 97.0352 157.906 97.3477C157.828 97.582 157.672 97.7188 157.438 97.7578C157.242 97.8359 157.105 97.9727 157.027 98.168V98.3438C157.027 98.9297 156.949 99.4375 156.793 99.8672C156.676 100.336 156.52 100.766 156.324 101.156L155.797 102.387C155.641 102.816 155.504 103.285 155.387 103.793C154.371 104.34 153.395 104.867 152.457 105.375C151.559 105.883 150.68 106.566 149.82 107.426C149.664 107.465 149.43 107.484 149.117 107.484C148.844 107.484 148.57 107.465 148.297 107.426C148.023 107.426 147.73 107.426 147.418 107.426C146.988 107.426 146.539 107.484 146.07 107.602C145.445 107.016 144.684 106.586 143.785 106.312C142.887 106.078 142.047 105.746 141.266 105.316C140.992 104.965 140.68 104.652 140.328 104.379L139.273 103.559C138.922 103.285 138.59 103.012 138.277 102.738C137.965 102.465 137.691 102.113 137.457 101.684H136.637C136.637 101.645 136.637 101.605 136.637 101.566C136.676 101.527 136.695 101.488 136.695 101.449C136.695 101.254 136.598 101.137 136.402 101.098C136.207 101.059 136.148 100.922 136.227 100.688C135.758 100.336 135.367 99.9258 135.055 99.457C134.742 98.9883 134.43 98.5 134.117 97.9922C133.805 97.5234 133.492 97.0547 133.18 96.5859C132.867 96.1562 132.477 95.7656 132.008 95.4141V95.2969C132.008 95.1016 131.949 94.9844 131.832 94.9453C131.715 94.8672 131.695 94.6719 131.773 94.3594C131.148 93.5391 130.621 92.6797 130.191 91.7812C129.762 90.8828 129.352 89.9648 128.961 89.0273C128.609 88.0508 128.238 87.0938 127.848 86.1562C127.496 85.2188 127.066 84.3203 126.559 83.4609C126.48 83.0703 126.441 82.6797 126.441 82.2891V81.1172C126.441 79.9844 126.539 78.9102 126.734 77.8945C126.93 76.8398 127.301 75.8242 127.848 74.8477C128.16 74.7695 128.512 74.75 128.902 74.7891C129.332 74.7891 129.723 74.7891 130.074 74.7891C130.426 74.7891 130.758 74.7695 131.07 74.7305C131.422 74.6523 131.734 74.4766 132.008 74.2031C131.969 74.3594 132.008 74.4766 132.125 74.5547C132.242 74.5938 132.359 74.6133 132.477 74.6133C132.672 74.6133 132.848 74.5938 133.004 74.5547C133.199 74.4766 133.395 74.4375 133.59 74.4375C133.668 74.4375 133.766 74.457 133.883 74.4961C134.039 74.5352 134.117 74.6523 134.117 74.8477C134.352 74.7695 134.566 74.6719 134.762 74.5547C134.957 74.4375 135.172 74.3203 135.406 74.2031C136.07 74.7891 136.852 75.2383 137.75 75.5508C138.648 75.8242 139.566 76.0977 140.504 76.3711C141.441 76.6055 142.359 76.8789 143.258 77.1914C144.156 77.4648 144.957 77.875 145.66 78.4219C145.855 78.8125 145.953 79.2227 145.953 79.6523C145.953 80.3164 145.68 80.9023 145.133 81.4102C144.586 81.8789 144 82.2109 143.375 82.4062C142.477 81.7812 141.461 81.332 140.328 81.0586C139.234 80.7852 138.199 80.3945 137.223 79.8867C136.441 80.1992 135.582 80.375 134.645 80.4141C133.746 80.4141 132.867 80.4531 132.008 80.5312C131.812 80.6875 131.734 80.9609 131.773 81.3516C131.852 81.7422 131.793 82.0352 131.598 82.2305C132.105 83.7539 132.77 85.2383 133.59 86.6836C134.41 88.0898 135.152 89.5352 135.816 91.0195C135.895 91.2539 136.031 91.4297 136.227 91.5469C136.422 91.625 136.617 91.7227 136.812 91.8398V92.0156C136.812 92.25 136.871 92.4258 136.988 92.543C137.105 92.6211 137.125 92.8164 137.047 93.1289C137.516 93.207 137.848 93.4609 138.043 93.8906C138.277 94.3203 138.512 94.6914 138.746 95.0039C138.902 95.1992 139.059 95.375 139.215 95.5312C139.41 95.6875 139.586 95.8633 139.742 96.0586C140.406 96.8008 141.129 97.582 141.91 98.4023C142.691 99.2227 143.512 99.8477 144.371 100.277C144.488 100.355 144.586 100.395 144.664 100.395C144.781 100.395 144.898 100.414 145.016 100.453C145.445 100.688 145.914 100.902 146.422 101.098C146.93 101.332 147.457 101.449 148.004 101.449C148.277 101.449 148.551 101.391 148.824 101.273C149.137 101.156 149.332 100.961 149.41 100.688C149.605 100.336 149.742 99.9258 149.82 99.457C149.938 99.0273 150.035 98.6172 150.113 98.2266C150.426 97.0938 150.719 95.9609 150.992 94.8281C151.305 93.6953 151.559 92.5625 151.754 91.4297C151.676 90.9219 151.617 90.4141 151.578 89.9062C151.539 89.3984 151.52 88.8906 151.52 88.3828C151.52 87.4844 151.539 86.5859 151.578 85.6875C151.656 84.7891 151.695 83.8906 151.695 82.9922C151.695 82.1719 151.637 81.3711 151.52 80.5898C151.441 79.7695 151.246 78.9688 150.934 78.1875C151.012 78.0312 151.109 77.9141 151.227 77.8359C151.344 77.7578 151.402 77.6211 151.402 77.4258C151.402 77.1914 151.324 76.8789 151.168 76.4883C151.051 76.0586 150.895 75.7852 150.699 75.668C150.973 75.2773 151.109 74.7891 151.109 74.2031C151.109 73.5391 151.012 72.875 150.816 72.2109C150.621 71.5469 150.523 70.8828 150.523 70.2188C150.523 69.7891 150.582 69.3594 150.699 68.9297C150.699 68.6562 150.562 68.5195 150.289 68.5195C150.016 68.5195 149.859 68.3828 149.82 68.1094C149.82 68.0312 149.82 67.9531 149.82 67.875C149.859 67.7969 149.879 67.7188 149.879 67.6406C149.879 67.1328 149.801 66.6641 149.645 66.2344C149.527 65.7656 149.449 65.2773 149.41 64.7695C149.059 64.3789 148.805 63.8906 148.648 63.3047C148.492 62.7188 148.336 62.1328 148.18 61.5469C148.023 60.9219 147.848 60.3359 147.652 59.7891C147.457 59.2422 147.145 58.793 146.715 58.4414C146.715 57.9336 146.637 57.4062 146.48 56.8594C146.363 56.3125 146.031 55.9219 145.484 55.6875C145.25 54.7891 144.938 53.9492 144.547 53.168C144.156 52.3867 143.629 51.6836 142.965 51.0586C142.965 50.1211 142.77 49.3984 142.379 48.8906C142.027 48.3828 141.578 47.7969 141.031 47.1328C140.133 47.2109 139.234 47.3867 138.336 47.6602C137.438 47.9336 136.539 48.0703 135.641 48.0703C135.406 48.0703 135.172 48.0703 134.938 48.0703C134.742 48.0312 134.527 47.9922 134.293 47.9531C134.098 48.0703 133.98 48.2656 133.941 48.5391C133.902 48.7734 133.883 48.9883 133.883 49.1836C133.18 49.2617 132.496 49.3984 131.832 49.5938C131.168 49.75 130.484 49.9258 129.781 50.1211C129.117 50.2773 128.453 50.4141 127.789 50.5312C127.125 50.6484 126.441 50.6875 125.738 50.6484C125.465 51.1953 125.074 51.5664 124.566 51.7617C124.059 51.918 123.512 52.0352 122.926 52.1133C122.379 52.1914 121.832 52.2891 121.285 52.4062C120.738 52.5234 120.309 52.7773 119.996 53.168C119.84 53.0117 119.645 52.9336 119.41 52.9336C119.098 52.9336 118.805 53.0117 118.531 53.168C118.219 53.3242 117.887 53.4023 117.535 53.4023C117.262 53.4023 117.047 53.3242 116.891 53.168C116.617 53.3633 116.324 53.5195 116.012 53.6367C115.66 53.7148 115.387 53.9102 115.191 54.2227C114.527 54.1055 113.941 53.8516 113.434 53.4609C112.926 53.0703 112.516 52.6016 112.203 52.0547C111.852 51.5078 111.598 50.9219 111.441 50.2969C111.285 49.6328 111.207 48.9883 111.207 48.3633C111.441 47.9336 111.812 47.6406 112.32 47.4844C112.828 47.3281 113.238 47.0547 113.551 46.6641C113.824 46.7812 114.098 46.8984 114.371 47.0156C114.605 47.0938 114.879 47.1328 115.191 47.1328C115.582 47.1328 115.914 47.0547 116.188 46.8984C116.461 46.7422 116.754 46.6641 117.066 46.6641C117.262 46.6641 117.477 46.7227 117.711 46.8398C117.984 46.6055 118.316 46.4688 118.707 46.4297C119.098 46.3516 119.469 46.293 119.82 46.2539C120.211 46.1758 120.562 46.0781 120.875 45.9609C121.188 45.8438 121.402 45.5898 121.52 45.1992C121.871 45.3164 122.242 45.375 122.633 45.375C123.102 45.375 123.57 45.3164 124.039 45.1992C124.508 45.043 124.938 44.8867 125.328 44.7305C125.719 44.5742 126.07 44.4375 126.383 44.3203C126.695 44.1641 126.91 44.0859 127.027 44.0859C127.223 44.0859 127.418 44.1445 127.613 44.2617C127.809 44.3398 128.004 44.3789 128.199 44.3789C128.59 44.3789 128.961 44.2617 129.312 44.0273C129.703 43.793 130.055 43.5586 130.367 43.3242C130.68 43.4805 130.973 43.5586 131.246 43.5586C131.793 43.5586 132.34 43.4023 132.887 43.0898C133.473 42.7773 134.098 42.6211 134.762 42.6211C135.035 42.6211 135.25 42.6406 135.406 42.6797C136.305 42.25 137.379 41.8594 138.629 41.5078C139.918 41.1562 141.07 40.9805 142.086 40.9805C142.633 40.5117 143.277 40.1797 144.02 39.9844C144.762 39.7891 145.523 39.6328 146.305 39.5156C147.086 39.3984 147.848 39.2422 148.59 39.0469C149.371 38.8516 150.074 38.5195 150.699 38.0508C150.895 38.1289 151.129 38.1875 151.402 38.2266C151.676 38.2266 151.871 38.3047 151.988 38.4609C152.184 38.3828 152.32 38.2461 152.398 38.0508C152.477 37.8555 152.535 37.6602 152.574 37.4648C152.613 37.4258 152.691 37.4062 152.809 37.4062C153.004 37.4062 153.082 37.4844 153.043 37.6406C153.004 37.7969 153.082 37.875 153.277 37.875C153.395 37.875 153.59 37.8164 153.863 37.6992C154.176 37.543 154.547 37.3867 154.977 37.2305C155.406 37.0742 155.875 36.9375 156.383 36.8203C156.891 36.6641 157.379 36.5859 157.848 36.5859H158.082L158.375 36.5273C158.57 36.4492 158.785 36.3906 159.02 36.3516C159.254 36.2734 159.469 36.1953 159.664 36.1172C159.898 36.0391 160.055 36 160.133 36C160.992 35.7266 161.871 35.4922 162.77 35.2969C163.707 35.1016 164.625 35.0039 165.523 35.0039C166.383 35.0039 167.184 35.1602 167.926 35.4727C168.668 35.7461 169.293 36.2539 169.801 36.9961ZM204.664 62.0742C204.43 62.4258 204.293 62.8164 204.254 63.2461C204.215 63.6758 204.195 64.0664 204.195 64.418C204.195 64.8867 204.195 65.3555 204.195 65.8242C204.234 66.2539 204.254 66.6836 204.254 67.1133V67.9922C204.176 68.2656 204.059 68.5391 203.902 68.8125C203.746 69.0859 203.629 69.3594 203.551 69.6328C203.004 71.0781 202.73 72.5234 202.73 73.9688V74.0859C202.535 74.5547 202.34 74.9844 202.145 75.375C201.988 75.7656 201.832 76.1562 201.676 76.5469C201.52 76.8984 201.402 77.2891 201.324 77.7188C201.246 78.1094 201.227 78.5781 201.266 79.125C200.719 80.4922 199.996 81.7422 199.098 82.875C198.199 83.9688 197.32 85.1016 196.461 86.2734C195.641 86.5859 194.879 86.9961 194.176 87.5039C193.512 88.0117 192.867 88.5781 192.242 89.2031C191.031 89.5938 189.84 90.043 188.668 90.5508C187.496 91.0586 186.441 91.7422 185.504 92.6016C184.762 92.6797 184.02 92.7969 183.277 92.9531C182.535 93.1094 181.812 93.3438 181.109 93.6562H180.406C180.055 93.6562 179.801 93.5781 179.645 93.4219C179.137 93.6953 178.609 93.8906 178.062 94.0078C177.516 94.0859 176.969 94.125 176.422 94.125C175.719 94.125 175.016 94.0859 174.312 94.0078C173.648 93.8906 172.965 93.7734 172.262 93.6562C171.871 93.1094 171.324 92.6992 170.621 92.4258C169.918 92.1133 169.293 91.8203 168.746 91.5469C167.613 89.9844 166.793 88.4805 166.285 87.0352C165.777 85.5508 165.25 83.8906 164.703 82.0547C164.781 81.5078 164.918 80.9805 165.113 80.4727C165.309 79.9258 165.387 79.3398 165.348 78.7148C166.051 76.6836 166.969 74.8477 168.102 73.207C169.273 71.5273 170.602 69.9258 172.086 68.4023C172.086 68.168 172.125 67.9727 172.203 67.8164C172.32 67.6602 172.34 67.4258 172.262 67.1133C172.301 67.1523 172.379 67.1719 172.496 67.1719C172.809 67.1719 173.004 67.0938 173.082 66.9375C173.16 66.7422 173.18 66.5273 173.141 66.293C174.547 65.3945 175.816 64.3594 176.949 63.1875C178.121 62.0156 179.449 61.0391 180.934 60.2578C181.051 59.9062 181.246 59.6133 181.52 59.3789C181.793 59.1445 182.008 58.8711 182.164 58.5586C183.414 58.207 184.547 57.6797 185.562 56.9766C186.578 56.2734 187.652 55.6484 188.785 55.1016C189.41 54.75 189.996 54.5156 190.543 54.3984C191.129 54.2422 191.754 54.0859 192.418 53.9297C192.652 53.8516 192.867 53.793 193.062 53.7539C193.258 53.7148 193.473 53.6953 193.707 53.6953C194.41 53.6953 195.094 53.832 195.758 54.1055C196.422 54.3398 197.105 54.457 197.809 54.457C198.004 54.457 198.16 54.457 198.277 54.457C198.434 54.418 198.59 54.3789 198.746 54.3398C199.41 55.1602 200.25 55.7852 201.266 56.2148C201.5 56.8008 201.773 57.3086 202.086 57.7383C202.438 58.168 202.789 58.5977 203.141 59.0273C203.492 59.418 203.805 59.8672 204.078 60.375C204.391 60.8438 204.586 61.4102 204.664 62.0742ZM198.805 65.1211C198.805 64.9258 198.785 64.75 198.746 64.5938C198.355 64.4766 197.984 64.3203 197.633 64.125C197.281 63.9297 196.891 63.832 196.461 63.832C196.188 63.832 195.914 63.8906 195.641 64.0078C195.602 63.7344 195.484 63.5391 195.289 63.4219C195.133 63.3047 194.938 63.207 194.703 63.1289C194.508 63.0117 194.293 62.9336 194.059 62.8945C193.863 62.8164 193.688 62.6992 193.531 62.543C193.414 62.2305 193.277 61.918 193.121 61.6055C193.004 61.2539 192.77 61 192.418 60.8438C192.066 61.1953 191.656 61.4883 191.188 61.7227C190.719 61.918 190.23 62.1133 189.723 62.3086C189.254 62.5039 188.785 62.7383 188.316 63.0117C187.887 63.2852 187.516 63.6172 187.203 64.0078H186.148C185.914 64.4375 185.582 64.7695 185.152 65.0039C184.723 65.1992 184.352 65.4922 184.039 65.8828C183.414 66.1953 182.828 66.5859 182.281 67.0547C181.773 67.4844 181.266 67.9531 180.758 68.4609C180.25 68.9297 179.742 69.418 179.234 69.9258C178.766 70.4336 178.258 70.9023 177.711 71.332C177.203 72.4258 176.637 73.3828 176.012 74.2031C175.426 74.9844 174.859 75.7852 174.312 76.6055C173.805 77.4258 173.355 78.3242 172.965 79.3008C172.613 80.2383 172.438 81.4102 172.438 82.8164V83.4023C172.438 83.5977 172.457 83.793 172.496 83.9883C173.004 84.5352 173.414 85.1211 173.727 85.7461C174.078 86.3711 174.645 86.8203 175.426 87.0938C176.207 87.4062 177.027 87.543 177.887 87.5039C178.785 87.4648 179.645 87.5625 180.465 87.7969C182.34 87.4453 184.137 86.8789 185.855 86.0977C187.613 85.2773 189.273 84.3008 190.836 83.168C191.07 82.9727 191.344 82.7773 191.656 82.582C191.969 82.3477 192.223 82.1133 192.418 81.8789C192.613 81.6836 192.77 81.4688 192.887 81.2344C193.043 81 193.199 80.7852 193.355 80.5898C193.668 80.082 194.02 79.5742 194.41 79.0664C194.801 78.5586 195.211 78.0898 195.641 77.6602C195.836 76.8008 196.09 75.9805 196.402 75.1992C196.715 74.3789 197.027 73.5781 197.34 72.7969C197.652 72.0156 197.906 71.2148 198.102 70.3945C198.336 69.5742 198.453 68.7148 198.453 67.8164C198.453 67.6211 198.434 67.4062 198.395 67.1719C198.395 66.9375 198.375 66.7227 198.336 66.5273C198.648 66.0977 198.805 65.6289 198.805 65.1211ZM269.762 63.5977C269.645 63.9492 269.41 64.2031 269.059 64.3594C268.746 64.4766 268.414 64.5742 268.062 64.6523C267.711 64.7305 267.379 64.8672 267.066 65.0625C266.793 65.2188 266.617 65.4922 266.539 65.8828L266.422 65.9414C266.266 65.9414 266.148 65.9023 266.07 65.8242C266.031 65.707 265.992 65.6094 265.953 65.5312C265.914 65.4141 265.855 65.3164 265.777 65.2383C265.738 65.1211 265.66 65.0625 265.543 65.0625C265.113 65.0625 264.684 65.1016 264.254 65.1797C263.863 65.2578 263.473 65.2969 263.082 65.2969C262.496 65.2969 261.969 65.2188 261.5 65.0625C261.227 65.1406 261.07 65.3164 261.031 65.5898C261.031 65.8633 260.914 66.0391 260.68 66.1172C260.484 66.1953 260.25 66.2344 259.977 66.2344C259.703 66.1953 259.43 66.2148 259.156 66.293L257.281 66.7617C256.656 66.918 256.031 66.9961 255.406 66.9961C255.055 66.9961 254.801 66.9766 254.645 66.9375C254.059 67.4062 253.395 67.7578 252.652 67.9922C251.91 68.1875 251.129 68.3828 250.309 68.5781C249.527 68.7344 248.746 68.9492 247.965 69.2227C247.223 69.4961 246.559 69.9258 245.973 70.5117C245.66 70.4336 245.387 70.3945 245.152 70.3945C244.645 70.3945 244.195 70.5117 243.805 70.7461C243.414 70.9414 243.004 71.1367 242.574 71.332C242.379 71.4102 242.184 71.4492 241.988 71.4492C241.793 71.4492 241.578 71.4883 241.344 71.5664C241.109 71.6445 240.953 71.7812 240.875 71.9766C240.836 72.1328 240.719 72.2891 240.523 72.4453C240.523 73.8516 240.66 75.2578 240.934 76.6641C241.207 78.0312 241.344 79.418 241.344 80.8242V81.0586C241.422 81.7227 241.637 82.3477 241.988 82.9336C242.34 83.4805 242.516 84.0469 242.516 84.6328C242.516 84.8281 242.477 85.043 242.398 85.2773C243.414 85.5117 244.078 86.0391 244.391 86.8594C244.742 87.6406 245.016 88.5 245.211 89.4375C245.445 90.3359 245.738 91.1758 246.09 91.957C246.48 92.7383 247.223 93.2266 248.316 93.4219C248.395 93.8125 248.453 94.2227 248.492 94.6523C248.531 95.043 248.551 95.4336 248.551 95.8242C248.551 96.3711 248.492 96.8984 248.375 97.4062C248.258 97.9531 248.023 98.4414 247.672 98.8711C247.086 98.9102 246.656 98.9297 246.383 98.9297C246.109 98.9297 245.699 99.0469 245.152 99.2812C244.371 98.8125 243.668 98.2656 243.043 97.6406C242.457 97.0547 241.891 96.4297 241.344 95.7656C240.836 95.0625 240.328 94.3594 239.82 93.6562C239.312 92.9141 238.766 92.2109 238.18 91.5469C236.148 92.0547 234.059 92.4062 231.91 92.6016C229.801 92.7578 227.691 92.8359 225.582 92.8359C225.504 92.9141 225.387 92.9531 225.23 92.9531C225.074 92.9531 224.918 92.9727 224.762 93.0117C224.645 93.0117 224.527 93.0508 224.41 93.1289C224.332 93.168 224.312 93.2656 224.352 93.4219C224.078 93.2656 223.766 93.168 223.414 93.1289C223.102 93.0508 222.809 93.0117 222.535 93.0117C222.34 93.0117 222.145 93.0312 221.949 93.0703C221.754 93.0703 221.559 93.1289 221.363 93.2461C219.879 92.9727 218.434 92.6016 217.027 92.1328C215.66 91.625 214.254 91.2148 212.809 90.9023C212.809 90.5898 212.73 90.375 212.574 90.2578C212.418 90.1016 212.281 89.8867 212.164 89.6133C210.523 88.5977 209.137 87.3672 208.004 85.9219C206.91 84.4766 206.461 82.7188 206.656 80.6484L206.246 79.8281C206.246 79.2031 206.383 78.7539 206.656 78.4805C206.5 78.207 206.227 77.9336 205.836 77.6602C206.188 77.1133 206.5 76.5469 206.773 75.9609C207.047 75.375 207.242 74.75 207.359 74.0859C207.398 73.8906 207.418 73.7148 207.418 73.5586C207.418 73.4023 207.457 73.2266 207.535 73.0312C207.613 72.7969 207.73 72.543 207.887 72.2695C208.004 71.957 208.121 71.6836 208.238 71.4492C208.863 70.1211 209.547 68.8516 210.289 67.6406C211.07 66.3906 212.047 65.3164 213.219 64.418C213.297 63.7539 213.492 63.207 213.805 62.7773C214.117 62.3086 214.449 61.8984 214.801 61.5469C215.191 61.1562 215.562 60.7656 215.914 60.375C216.305 59.9844 216.598 59.5156 216.793 58.9688C217.574 58.3047 218.355 57.6602 219.137 57.0352C219.957 56.4102 220.641 55.668 221.188 54.8086C221.891 54.5742 222.555 54.2812 223.18 53.9297C223.805 53.5391 224.332 53.0508 224.762 52.4648C225.699 52.3867 226.617 52.2109 227.516 51.9375C228.453 51.6641 229.43 51.5273 230.445 51.5273C230.875 51.5273 231.383 51.625 231.969 51.8203C232.594 51.9766 233.062 52.2695 233.375 52.6992C233.414 52.7773 233.434 52.875 233.434 52.9922L233.492 53.2852C233.531 53.3633 233.57 53.4414 233.609 53.5195C233.688 53.5586 233.805 53.5586 233.961 53.5195C233.961 54.3789 233.863 55.2578 233.668 56.1562C233.473 57.0156 232.965 57.6797 232.145 58.1484C231.637 57.9922 231.09 57.9141 230.504 57.9141C229.723 57.9141 229 58.0703 228.336 58.3828C227.711 58.6562 227.086 58.9883 226.461 59.3789C225.875 59.7305 225.27 60.1016 224.645 60.4922C224.02 60.8438 223.355 61.0977 222.652 61.2539C222.574 61.5664 222.496 61.8594 222.418 62.1328C222.379 62.3672 222.398 62.6406 222.477 62.9531C222.281 62.9531 222.125 62.9336 222.008 62.8945C221.93 62.8164 221.793 62.7773 221.598 62.7773C221.324 62.7773 221.129 62.9336 221.012 63.2461C220.934 63.5586 220.855 63.8125 220.777 64.0078C220.035 64.3203 219.41 64.7695 218.902 65.3555C218.434 65.9023 217.984 66.5078 217.555 67.1719C217.164 67.7969 216.734 68.4023 216.266 68.9883C215.797 69.5742 215.211 70.0234 214.508 70.3359C214.195 71.5859 213.883 72.8164 213.57 74.0273C213.297 75.2383 212.965 76.4492 212.574 77.6602C212.691 78.1289 212.75 78.6172 212.75 79.125C212.75 79.75 212.691 80.3164 212.574 80.8242C212.77 81.1367 212.965 81.5078 213.16 81.9375L213.863 83.2852C214.098 83.7539 214.332 84.1836 214.566 84.5742C214.84 84.9648 215.094 85.2578 215.328 85.4531C215.758 85.7656 216.422 86.0586 217.32 86.332C218.219 86.5664 219.02 86.9766 219.723 87.5625C219.801 87.5625 219.898 87.5625 220.016 87.5625C220.133 87.5234 220.23 87.5039 220.309 87.5039C220.777 87.5039 221.285 87.6211 221.832 87.8555C222.379 88.0898 222.73 88.207 222.887 88.207C225.074 88.207 227.457 88.0703 230.035 87.7969C232.613 87.4844 234.996 87.1133 237.184 86.6836C237.262 86.293 237.301 85.9609 237.301 85.6875C237.301 85.1797 237.223 84.6914 237.066 84.2227C236.91 83.7148 236.656 83.2852 236.305 82.9336C236.305 82.3477 236.305 81.7617 236.305 81.1758C236.344 80.5898 236.363 80.0039 236.363 79.418C236.363 78.4414 236.324 77.4062 236.246 76.3125C236.168 75.2188 235.973 74.2031 235.66 73.2656H235.543C235.035 73.2656 234.566 73.4023 234.137 73.6758C233.746 73.9102 233.336 74.0273 232.906 74.0273C232.672 74.0273 232.477 73.9688 232.32 73.8516C231.852 74.3984 231.285 74.8086 230.621 75.082C229.957 75.3555 229.254 75.6094 228.512 75.8438C227.77 76.0391 227.027 76.2539 226.285 76.4883C225.582 76.7227 224.938 77.0547 224.352 77.4844C224.039 77.3672 223.746 77.3086 223.473 77.3086C223.199 77.3086 222.926 77.3281 222.652 77.3672C222.418 77.4062 222.145 77.4453 221.832 77.4844C221.012 76.7812 220.602 75.9023 220.602 74.8477C220.602 74.3008 220.68 73.7734 220.836 73.2656C221.031 72.7188 221.285 72.2109 221.598 71.7422C221.793 71.625 222.027 71.5664 222.301 71.5664C222.574 71.5273 222.848 71.4883 223.121 71.4492C223.395 71.3711 223.609 71.2734 223.766 71.1562C223.961 71.0391 224.078 70.8242 224.117 70.5117C224.234 70.6289 224.332 70.6875 224.41 70.6875C224.488 70.6875 224.566 70.668 224.645 70.6289C224.723 70.5898 224.801 70.5703 224.879 70.5703C224.957 70.5703 225.016 70.6094 225.055 70.6875C225.133 70.7656 225.172 70.8438 225.172 70.9219C226.852 70.0234 228.57 69.2617 230.328 68.6367C232.086 68.0117 233.863 67.4453 235.66 66.9375C237.496 66.4297 239.332 65.9609 241.168 65.5312C243.004 65.0625 244.82 64.5547 246.617 64.0078C246.891 63.7734 247.184 63.5977 247.496 63.4805C247.809 63.3633 248.082 63.1875 248.316 62.9531C248.59 63.1094 248.922 63.1875 249.312 63.1875C249.859 63.1875 250.445 63.0898 251.07 62.8945C251.734 62.6602 252.281 62.3867 252.711 62.0742C252.867 62.1133 253.004 62.1328 253.121 62.1328H253.531C254.312 62.1328 255.035 62.0156 255.699 61.7812C256.402 61.5469 257.086 61.2344 257.75 60.8438H258.043C259.254 60.8438 260.445 60.707 261.617 60.4336C262.828 60.1602 264.059 60.0234 265.309 60.0234C266.91 60.0234 268.316 60.4336 269.527 61.2539V61.957C269.527 62.2695 269.527 62.5625 269.527 62.8359C269.566 63.0703 269.645 63.3242 269.762 63.5977ZM289.918 62.0742C289.684 62.4258 289.547 62.8164 289.508 63.2461C289.469 63.6758 289.449 64.0664 289.449 64.418C289.449 64.8867 289.449 65.3555 289.449 65.8242C289.488 66.2539 289.508 66.6836 289.508 67.1133V67.9922C289.43 68.2656 289.312 68.5391 289.156 68.8125C289 69.0859 288.883 69.3594 288.805 69.6328C288.258 71.0781 287.984 72.5234 287.984 73.9688V74.0859C287.789 74.5547 287.594 74.9844 287.398 75.375C287.242 75.7656 287.086 76.1562 286.93 76.5469C286.773 76.8984 286.656 77.2891 286.578 77.7188C286.5 78.1094 286.48 78.5781 286.52 79.125C285.973 80.4922 285.25 81.7422 284.352 82.875C283.453 83.9688 282.574 85.1016 281.715 86.2734C280.895 86.5859 280.133 86.9961 279.43 87.5039C278.766 88.0117 278.121 88.5781 277.496 89.2031C276.285 89.5938 275.094 90.043 273.922 90.5508C272.75 91.0586 271.695 91.7422 270.758 92.6016C270.016 92.6797 269.273 92.7969 268.531 92.9531C267.789 93.1094 267.066 93.3438 266.363 93.6562H265.66C265.309 93.6562 265.055 93.5781 264.898 93.4219C264.391 93.6953 263.863 93.8906 263.316 94.0078C262.77 94.0859 262.223 94.125 261.676 94.125C260.973 94.125 260.27 94.0859 259.566 94.0078C258.902 93.8906 258.219 93.7734 257.516 93.6562C257.125 93.1094 256.578 92.6992 255.875 92.4258C255.172 92.1133 254.547 91.8203 254 91.5469C252.867 89.9844 252.047 88.4805 251.539 87.0352C251.031 85.5508 250.504 83.8906 249.957 82.0547C250.035 81.5078 250.172 80.9805 250.367 80.4727C250.562 79.9258 250.641 79.3398 250.602 78.7148C251.305 76.6836 252.223 74.8477 253.355 73.207C254.527 71.5273 255.855 69.9258 257.34 68.4023C257.34 68.168 257.379 67.9727 257.457 67.8164C257.574 67.6602 257.594 67.4258 257.516 67.1133C257.555 67.1523 257.633 67.1719 257.75 67.1719C258.062 67.1719 258.258 67.0938 258.336 66.9375C258.414 66.7422 258.434 66.5273 258.395 66.293C259.801 65.3945 261.07 64.3594 262.203 63.1875C263.375 62.0156 264.703 61.0391 266.188 60.2578C266.305 59.9062 266.5 59.6133 266.773 59.3789C267.047 59.1445 267.262 58.8711 267.418 58.5586C268.668 58.207 269.801 57.6797 270.816 56.9766C271.832 56.2734 272.906 55.6484 274.039 55.1016C274.664 54.75 275.25 54.5156 275.797 54.3984C276.383 54.2422 277.008 54.0859 277.672 53.9297C277.906 53.8516 278.121 53.793 278.316 53.7539C278.512 53.7148 278.727 53.6953 278.961 53.6953C279.664 53.6953 280.348 53.832 281.012 54.1055C281.676 54.3398 282.359 54.457 283.062 54.457C283.258 54.457 283.414 54.457 283.531 54.457C283.688 54.418 283.844 54.3789 284 54.3398C284.664 55.1602 285.504 55.7852 286.52 56.2148C286.754 56.8008 287.027 57.3086 287.34 57.7383C287.691 58.168 288.043 58.5977 288.395 59.0273C288.746 59.418 289.059 59.8672 289.332 60.375C289.645 60.8438 289.84 61.4102 289.918 62.0742ZM284.059 65.1211C284.059 64.9258 284.039 64.75 284 64.5938C283.609 64.4766 283.238 64.3203 282.887 64.125C282.535 63.9297 282.145 63.832 281.715 63.832C281.441 63.832 281.168 63.8906 280.895 64.0078C280.855 63.7344 280.738 63.5391 280.543 63.4219C280.387 63.3047 280.191 63.207 279.957 63.1289C279.762 63.0117 279.547 62.9336 279.312 62.8945C279.117 62.8164 278.941 62.6992 278.785 62.543C278.668 62.2305 278.531 61.918 278.375 61.6055C278.258 61.2539 278.023 61 277.672 60.8438C277.32 61.1953 276.91 61.4883 276.441 61.7227C275.973 61.918 275.484 62.1133 274.977 62.3086C274.508 62.5039 274.039 62.7383 273.57 63.0117C273.141 63.2852 272.77 63.6172 272.457 64.0078H271.402C271.168 64.4375 270.836 64.7695 270.406 65.0039C269.977 65.1992 269.605 65.4922 269.293 65.8828C268.668 66.1953 268.082 66.5859 267.535 67.0547C267.027 67.4844 266.52 67.9531 266.012 68.4609C265.504 68.9297 264.996 69.418 264.488 69.9258C264.02 70.4336 263.512 70.9023 262.965 71.332C262.457 72.4258 261.891 73.3828 261.266 74.2031C260.68 74.9844 260.113 75.7852 259.566 76.6055C259.059 77.4258 258.609 78.3242 258.219 79.3008C257.867 80.2383 257.691 81.4102 257.691 82.8164V83.4023C257.691 83.5977 257.711 83.793 257.75 83.9883C258.258 84.5352 258.668 85.1211 258.98 85.7461C259.332 86.3711 259.898 86.8203 260.68 87.0938C261.461 87.4062 262.281 87.543 263.141 87.5039C264.039 87.4648 264.898 87.5625 265.719 87.7969C267.594 87.4453 269.391 86.8789 271.109 86.0977C272.867 85.2773 274.527 84.3008 276.09 83.168C276.324 82.9727 276.598 82.7773 276.91 82.582C277.223 82.3477 277.477 82.1133 277.672 81.8789C277.867 81.6836 278.023 81.4688 278.141 81.2344C278.297 81 278.453 80.7852 278.609 80.5898C278.922 80.082 279.273 79.5742 279.664 79.0664C280.055 78.5586 280.465 78.0898 280.895 77.6602C281.09 76.8008 281.344 75.9805 281.656 75.1992C281.969 74.3789 282.281 73.5781 282.594 72.7969C282.906 72.0156 283.16 71.2148 283.355 70.3945C283.59 69.5742 283.707 68.7148 283.707 67.8164C283.707 67.6211 283.688 67.4062 283.648 67.1719C283.648 66.9375 283.629 66.7227 283.59 66.5273C283.902 66.0977 284.059 65.6289 284.059 65.1211ZM357.945 67.1133C357.945 67.5039 357.809 67.7578 357.535 67.875C357.262 67.9922 357.125 68.2266 357.125 68.5781C357.125 68.6953 357.164 68.793 357.242 68.8711C357.32 68.9492 357.359 69.0664 357.359 69.2227V69.457C356.891 71.7227 356.207 73.6953 355.309 75.375C354.449 77.0547 353.434 78.5977 352.262 80.0039C351.09 81.4102 349.762 82.7383 348.277 83.9883C346.832 85.2383 345.27 86.5469 343.59 87.9141C343.121 88.3047 342.633 88.6953 342.125 89.0859C341.656 89.4766 341.207 89.8867 340.777 90.3164L339.488 91.5469C339.449 91.5859 339.234 91.6836 338.844 91.8398C338.453 91.957 338.219 92.0352 338.141 92.0742C337.594 92.3086 337.008 92.582 336.383 92.8945C335.797 93.207 335.289 93.5977 334.859 94.0664C334.078 94.0664 333.414 94.1836 332.867 94.418C332.32 94.6523 331.715 94.9648 331.051 95.3555C330.855 95.3555 330.68 95.3164 330.523 95.2383C330.406 95.1602 330.27 95.082 330.113 95.0039C329.957 94.9258 329.781 94.8867 329.586 94.8867C329.43 94.8477 329.215 94.8672 328.941 94.9453C328.473 94.1641 327.965 93.5 327.418 92.9531C326.871 92.4062 326.129 92.0742 325.191 91.957C325.074 91.293 324.801 90.7852 324.371 90.4336C323.941 90.043 323.512 89.6328 323.082 89.2031C323.004 88.9688 322.945 88.6953 322.906 88.3828C322.867 88.0703 322.789 87.7773 322.672 87.5039C322.555 87.2305 322.398 86.9961 322.203 86.8008C322.008 86.6055 321.734 86.5078 321.383 86.5078C321.344 86.2734 321.441 86.1562 321.676 86.1562C321.91 86.1562 322.027 86.0586 322.027 85.8633C322.027 85.6289 321.988 85.3945 321.91 85.1602C321.832 84.9258 321.793 84.6719 321.793 84.3984C321.793 84.2031 321.812 84.0273 321.852 83.8711C321.891 83.7148 321.949 83.5391 322.027 83.3438C321.91 82.2891 321.852 81.2148 321.852 80.1211C321.852 78.0117 321.988 75.9414 322.262 73.9102C322.574 71.8398 322.73 69.75 322.73 67.6406C322.73 66.7031 322.672 65.7656 322.555 64.8281C322.477 63.8906 322.301 62.9727 322.027 62.0742C321.129 62.2695 320.23 62.5039 319.332 62.7773C318.434 63.0117 317.594 63.3438 316.812 63.7734C316.383 63.5 315.934 63.3438 315.465 63.3047C314.957 63.2266 314.469 63.1094 314 62.9531C313.727 62.4062 313.59 61.8398 313.59 61.2539C313.59 60.707 313.688 60.1797 313.883 59.6719L314.469 58.1484C315.406 57.9531 316.344 57.6602 317.281 57.2695C318.18 56.8789 319.098 56.5273 320.035 56.2148C320.348 56.1367 320.738 56.0391 321.207 55.9219C321.715 55.8047 322.066 55.707 322.262 55.6289C322.535 55.5117 322.711 55.2969 322.789 54.9844C322.906 54.6328 323.062 54.3398 323.258 54.1055H324.254C324.488 54.1055 324.742 54.125 325.016 54.1641C325.289 54.1641 325.543 54.2227 325.777 54.3398C327.184 53.9883 328.59 53.7734 329.996 53.6953C331.402 53.5781 332.848 53.4219 334.332 53.2266C334.488 53.2266 334.723 53.207 335.035 53.168L336.031 52.9922C336.383 52.9141 336.695 52.8555 336.969 52.8164C337.281 52.7383 337.496 52.6992 337.613 52.6992C337.73 52.6992 337.789 52.7578 337.789 52.875H338.785C340.465 52.875 342.105 53.0898 343.707 53.5195L348.512 54.8086C349.176 55.3555 349.84 55.8828 350.504 56.3906C351.168 56.8984 351.91 57.3477 352.73 57.7383C352.926 58.3633 353.219 58.8711 353.609 59.2617C354.039 59.6133 354.508 60.0039 355.016 60.4336C355.211 60.9414 355.465 61.4883 355.777 62.0742C356.129 62.6211 356.461 63.1875 356.773 63.7734C357.086 64.3594 357.359 64.9453 357.594 65.5312C357.828 66.0781 357.945 66.6055 357.945 67.1133ZM352.496 67.9922C352.066 67.0938 351.656 66.1562 351.266 65.1797C350.875 64.2031 350.387 63.3242 349.801 62.543C349.098 62.3477 348.375 62.1133 347.633 61.8398C346.93 61.5273 346.441 61 346.168 60.2578C346.09 60.2969 345.953 60.3164 345.758 60.3164C345.406 60.3164 345.094 60.1797 344.82 59.9062C344.547 59.6328 344.234 59.457 343.883 59.3789C343.57 59.3398 343.141 59.2812 342.594 59.2031C342.086 59.125 341.539 59.0664 340.953 59.0273C340.367 58.9883 339.781 58.9492 339.195 58.9102C338.648 58.8711 338.219 58.8516 337.906 58.8516C337.594 58.8516 337.262 58.8711 336.91 58.9102C336.598 58.9102 336.266 58.9297 335.914 58.9688C335.602 58.9688 335.406 59.0273 335.328 59.1445C335.25 59.2227 335.094 59.3008 334.859 59.3789C334.664 59.3008 334.449 59.2617 334.215 59.2617H333.512C332.691 59.2617 331.871 59.3984 331.051 59.6719C330.27 59.9062 329.488 60.2383 328.707 60.668V60.9023C328.707 61.2148 328.844 61.3906 329.117 61.4297C329.391 61.4688 329.547 61.625 329.586 61.8984C329.391 61.8984 329.234 61.918 329.117 61.957C329 61.957 328.941 62.0938 328.941 62.3672C328.941 62.7578 328.98 63.1875 329.059 63.6562C329.176 64.125 329.234 64.5938 329.234 65.0625C329.234 65.4141 329.195 65.8242 329.117 66.293C329.039 66.7617 328.844 67.1328 328.531 67.4062C328.922 67.7578 329.117 68.2266 329.117 68.8125C329.117 69.2031 329.039 69.6133 328.883 70.043C328.727 70.4727 328.531 70.8438 328.297 71.1562C328.219 72.7969 328.062 74.457 327.828 76.1367C327.594 77.8164 327.477 79.4766 327.477 81.1172C327.477 81.9375 327.516 82.7383 327.594 83.5195C327.711 84.3008 327.887 85.082 328.121 85.8633C328.551 86.293 329 86.625 329.469 86.8594C329.977 87.0938 330.504 87.3281 331.051 87.5625V87.7383C331.051 87.8555 330.973 87.9727 330.816 88.0898C330.66 88.207 330.582 88.3633 330.582 88.5586C330.582 88.7148 330.66 88.793 330.816 88.793C332.457 88.3242 334 87.7578 335.445 87.0938C336.891 86.4297 338.238 85.5312 339.488 84.3984C339.605 84.2812 339.723 84.2227 339.84 84.2227C339.918 84.2227 340.016 84.2422 340.133 84.2812C340.289 84.3203 340.426 84.3594 340.543 84.3984L340.484 84.1641C340.484 83.9297 340.543 83.7148 340.66 83.5195C340.816 83.3242 340.992 83.1484 341.188 82.9922L341.773 82.4648C341.969 82.2695 342.125 82.0742 342.242 81.8789C342.555 81.8008 342.77 81.6445 342.887 81.4102C343.043 81.1758 343.297 81.0586 343.648 81.0586C343.727 80.6289 343.941 80.3164 344.293 80.1211C344.645 79.8867 344.859 79.5547 344.938 79.125C345.719 78.6953 346.402 78.168 346.988 77.543C347.613 76.918 348.18 76.2539 348.688 75.5508C349.234 74.8477 349.742 74.125 350.211 73.3828C350.68 72.6016 351.168 71.8594 351.676 71.1562V70.9219C351.676 70.2969 351.773 69.7891 351.969 69.3984C352.203 69.0078 352.379 68.5391 352.496 67.9922ZM404.117 91.7227C404 92.2695 403.746 92.7188 403.355 93.0703C403.004 93.3828 402.574 93.6367 402.066 93.832C401.559 94.0273 401.031 94.1641 400.484 94.2422C399.977 94.2812 399.508 94.3008 399.078 94.3008C398.883 94.3008 398.688 94.3008 398.492 94.3008C398.336 94.2617 398.16 94.2422 397.965 94.2422C397.77 94.2422 397.672 94.3398 397.672 94.5352C397.672 94.7305 397.574 94.8672 397.379 94.9453C397.184 94.8672 396.988 94.8086 396.793 94.7695C396.598 94.7305 396.402 94.7109 396.207 94.7109C395.934 94.7109 395.66 94.7305 395.387 94.7695C395.152 94.8086 394.918 94.8281 394.684 94.8281C394.371 94.8281 394.137 94.7891 393.98 94.7109C393.863 94.6328 393.746 94.5547 393.629 94.4766C393.551 94.3594 393.453 94.2422 393.336 94.125C393.258 94.0078 393.121 93.9102 392.926 93.832C392.652 93.7148 392.418 93.6953 392.223 93.7734C392.066 93.8516 391.812 93.7344 391.461 93.4219C390.992 93.0312 390.582 92.5625 390.23 92.0156C389.918 91.4297 389.605 90.8242 389.293 90.1992C388.98 89.5742 388.648 88.9492 388.297 88.3242C387.945 87.6992 387.535 87.1523 387.066 86.6836H386.598C385.895 86.6836 385.406 86.9766 385.133 87.5625C384.938 87.4453 384.742 87.3086 384.547 87.1523C384.352 86.957 384.137 86.8008 383.902 86.6836C383.004 86.957 382.066 87.1914 381.09 87.3867C380.113 87.582 379.137 87.6797 378.16 87.6797H377.34C377.105 87.6797 376.852 87.6406 376.578 87.5625C376.188 87.7188 375.836 87.9141 375.523 88.1484C375.211 88.3438 374.859 88.4414 374.469 88.4414C374.234 88.4414 373.961 88.3633 373.648 88.207C373.414 88.207 373.297 88.3047 373.297 88.5C373.336 88.6953 373.219 88.793 372.945 88.793H372.418C371.871 88.793 371.324 88.8125 370.777 88.8516C370.27 88.8906 369.742 88.9102 369.195 88.9102C368.453 88.9102 367.691 88.8125 366.91 88.6172C366.715 88.7344 366.5 88.793 366.266 88.793C366.109 88.8711 365.992 89.0078 365.914 89.2031C365.836 89.3594 365.758 89.5156 365.68 89.6719C365.602 89.7891 365.484 89.9062 365.328 90.0234C365.211 90.1016 365.035 90.1211 364.801 90.082C364.723 90.5508 364.527 90.9219 364.215 91.1953C363.902 91.4688 363.746 91.8789 363.746 92.4258C363.316 92.6602 362.965 92.9531 362.691 93.3047C362.418 93.6562 362.145 94.0273 361.871 94.418C361.598 94.8086 361.305 95.1797 360.992 95.5312C360.719 95.8828 360.367 96.1562 359.938 96.3516C359.742 96.5859 359.684 96.957 359.762 97.4648C359.332 97.8164 358.805 98.1289 358.18 98.4023C357.555 98.6758 356.969 98.8125 356.422 98.8125C355.289 98.8125 354.508 98.207 354.078 96.9961C354.078 96.6055 354.117 96.1953 354.195 95.7656C354.234 95.2969 354.312 94.8672 354.43 94.4766C354.547 94.0469 354.723 93.6758 354.957 93.3633C355.191 93.0117 355.523 92.7578 355.953 92.6016C355.953 92.25 355.836 92.0156 355.602 91.8984C355.367 91.7422 355.27 91.4883 355.309 91.1367C356.363 90.6289 357.281 89.9648 358.062 89.1445C358.844 88.3242 359.547 87.4648 360.172 86.5664C360.836 85.6289 361.5 84.6914 362.164 83.7539C362.828 82.8164 363.57 81.9766 364.391 81.2344V80.0039C365.562 78.7539 366.324 77.3477 366.676 75.7852C367.105 75.707 367.379 75.5117 367.496 75.1992C367.652 74.8867 367.73 74.5156 367.73 74.0859C367.926 74.0859 368.043 74.0078 368.082 73.8516C368.16 73.6562 368.336 73.5977 368.609 73.6758C368.961 72.7383 369.352 71.8789 369.781 71.0977C370.211 70.3164 370.641 69.5352 371.07 68.7539C371.5 67.9336 371.871 67.0938 372.184 66.2344C372.535 65.375 372.789 64.418 372.945 63.3633C373.492 63.3242 373.785 63.0703 373.824 62.6016C373.902 62.0938 373.98 61.6445 374.059 61.2539C374.645 60.707 375.074 60.0625 375.348 59.3203C375.66 58.5781 375.934 57.8164 376.168 57.0352C376.402 56.2148 376.656 55.4141 376.93 54.6328C377.242 53.8125 377.672 53.0898 378.219 52.4648V52.2891C378.219 52.0938 378.141 51.9766 377.984 51.9375C377.828 51.8594 377.75 51.7227 377.75 51.5273C377.789 51.4883 377.809 51.4492 377.809 51.4102C378.277 51.2148 378.629 50.9023 378.863 50.4727C379.098 50.0039 379.449 49.6719 379.918 49.4766C380.738 50.1406 381.461 50.5508 382.086 50.707C382.711 50.8242 383.531 50.9219 384.547 51C385.055 51.5469 385.328 52.2109 385.367 52.9922C385.445 53.7344 385.582 54.4766 385.777 55.2188C386.09 56.4688 386.422 57.6992 386.773 58.9102C387.164 60.082 387.457 61.293 387.652 62.543C387.77 63.2852 387.984 63.9883 388.297 64.6523C388.609 65.3164 388.824 66 388.941 66.7031C389.02 67.25 389.02 67.875 388.941 68.5781C388.863 69.2422 388.941 69.8281 389.176 70.3359L389.586 71.2734C389.781 71.7031 389.938 72.1523 390.055 72.6211C390.211 73.0898 390.348 73.5586 390.465 74.0273C390.777 75.1992 391.051 76.4688 391.285 77.8359C391.559 79.1641 391.969 80.375 392.516 81.4688C392.711 81.8594 393.004 82.1328 393.395 82.2891C393.824 82.4453 394.293 82.5625 394.801 82.6406C395.309 82.6797 395.797 82.6992 396.266 82.6992C396.773 82.6602 397.203 82.6406 397.555 82.6406H398.141C398.375 82.6406 398.609 82.6797 398.844 82.7578C399 83.0703 399.078 83.3438 399.078 83.5781C399.078 84.0469 398.922 84.418 398.609 84.6914C398.297 84.9648 398.141 85.2773 398.141 85.6289C398.141 85.8242 398.219 86.0391 398.375 86.2734C398.219 86.2344 397.984 86.2148 397.672 86.2148C396.773 86.2148 395.895 86.3711 395.035 86.6836C395.348 87.3477 395.758 87.9141 396.266 88.3828C396.812 88.8125 397.379 89.2227 397.965 89.6133C398.355 89.3008 398.766 89.1445 399.195 89.1445C399.664 89.1445 400.094 89.2617 400.484 89.4961C400.914 89.6914 401.363 89.7891 401.832 89.7891C402.184 89.7891 402.438 89.7305 402.594 89.6133C402.906 89.9648 403.16 90.3359 403.355 90.7266C403.551 91.0781 403.805 91.4102 404.117 91.7227ZM385.777 82.3477C385.699 81.6836 385.562 81.2148 385.367 80.9414C385.211 80.6289 385.074 80.2578 384.957 79.8281C384.801 79.2812 384.684 78.6953 384.605 78.0703C384.566 77.4453 384.488 76.8398 384.371 76.2539C384.098 74.9258 383.785 73.5977 383.434 72.2695C383.121 70.9414 382.711 69.6523 382.203 68.4023C382.359 68.168 382.438 67.9531 382.438 67.7578V67.582C382.086 67.1914 381.832 66.7227 381.676 66.1758C381.52 65.5898 381.363 65.0234 381.207 64.4766C381.09 63.8906 380.914 63.3633 380.68 62.8945C380.484 62.3867 380.152 61.9766 379.684 61.6641C379.566 61.8984 379.508 62.1719 379.508 62.4844C379.508 62.7578 379.527 63.0117 379.566 63.2461C379.645 63.4805 379.684 63.7344 379.684 64.0078C379.293 64.2031 379 64.5156 378.805 64.9453C378.648 65.3359 378.375 65.6484 377.984 65.8828C377.672 67.1328 377.223 68.3242 376.637 69.457C376.051 70.5508 375.426 71.6445 374.762 72.7383C374.137 73.832 373.531 74.9453 372.945 76.0781C372.359 77.1719 371.891 78.3242 371.539 79.5352C371.031 79.8867 370.68 80.3359 370.484 80.8828C370.328 81.4297 370.25 81.9766 370.25 82.5234C370.602 82.7188 370.992 82.8359 371.422 82.875C371.891 82.875 372.34 82.875 372.77 82.875C373.199 82.875 373.609 82.9141 374 82.9922C374.391 83.0703 374.742 83.2656 375.055 83.5781C375.562 83.4219 376.109 83.3242 376.695 83.2852C377.32 83.207 377.828 83.0312 378.219 82.7578C379 83.0312 379.84 83.168 380.738 83.168C381.207 83.168 381.656 83.1289 382.086 83.0508C382.555 82.9727 383.004 82.875 383.434 82.7578C383.785 82.8359 384.059 82.9727 384.254 83.168C384.449 83.3242 384.742 83.3828 385.133 83.3438C385.328 83.1875 385.445 83.0312 385.484 82.875C385.523 82.6797 385.621 82.5039 385.777 82.3477ZM460.426 54.2812C460.426 54.9453 460.387 55.5898 460.309 56.2148C460.27 56.8008 460.152 57.4258 459.957 58.0898C459.605 58.3633 459.293 58.6953 459.02 59.0859L458.199 60.1992C457.926 60.5508 457.633 60.9023 457.32 61.2539C457.008 61.5664 456.617 61.8203 456.148 62.0156C455.758 63.7344 455.27 65.3945 454.684 66.9961C454.137 68.5586 453.727 70.1992 453.453 71.918C452.984 72.7773 452.613 73.7148 452.34 74.7305C452.066 75.7461 451.773 76.7812 451.461 77.8359C451.188 78.8516 450.875 79.8281 450.523 80.7656C450.172 81.7031 449.684 82.543 449.059 83.2852C448.746 84.2227 448.434 85.2383 448.121 86.332C447.809 87.3867 447.281 88.2656 446.539 88.9688C446.578 89.0469 446.598 89.1641 446.598 89.3203C446.598 89.7891 446.48 90.2383 446.246 90.668C446.012 91.0586 445.895 91.4688 445.895 91.8984C445.27 92.3672 444.664 92.9141 444.078 93.5391C443.531 94.1641 442.965 94.7891 442.379 95.4141C441.793 96.0391 441.168 96.5859 440.504 97.0547C439.84 97.5234 439.117 97.8359 438.336 97.9922C437.789 97.6016 437.281 97.1523 436.812 96.6445C436.344 96.1758 435.797 95.7852 435.172 95.4727C434.859 93.7148 434.664 91.9961 434.586 90.3164C434.547 88.5977 434.41 86.8984 434.176 85.2188C434.02 84.2422 433.766 83.3047 433.414 82.4062C433.102 81.5078 432.945 80.5898 432.945 79.6523C432.945 79.457 432.945 79.2617 432.945 79.0664C432.984 78.832 433.023 78.6172 433.062 78.4219C432.672 77.9922 432.418 77.4648 432.301 76.8398C432.184 76.1758 432.086 75.5117 432.008 74.8477C431.93 74.1445 431.812 73.4609 431.656 72.7969C431.539 72.1328 431.305 71.5664 430.953 71.0977C431.109 70.9414 431.188 70.7266 431.188 70.4531C431.188 70.2578 431.148 70.0625 431.07 69.8672C431.031 69.6719 431.012 69.4766 431.012 69.2812C431.012 69.125 431.07 68.9492 431.188 68.7539C430.875 68.3633 430.66 68.0117 430.543 67.6992C430.465 67.3477 430.406 67.0156 430.367 66.7031C430.328 66.3516 430.289 66 430.25 65.6484C430.25 65.2969 430.211 64.9258 430.133 64.5352C430.055 64.2617 429.918 64.0664 429.723 63.9492C429.566 63.793 429.488 63.6758 429.488 63.5977C429.488 63.4023 429.566 63.2461 429.723 63.1289C429.176 62.3477 428.727 61.5273 428.375 60.668C428.023 59.8086 427.633 58.9492 427.203 58.0898C427.242 57.6602 427.398 57.3281 427.672 57.0938C427.945 56.8594 428.141 56.5469 428.258 56.1562H430.133C431.852 59.5156 433.16 63.0117 434.059 66.6445C434.996 70.2383 435.816 73.8711 436.52 77.543C436.715 78.5977 436.891 79.6523 437.047 80.707C437.242 81.7617 437.457 82.8359 437.691 83.9297C437.77 84.1641 437.887 84.418 438.043 84.6914C438.199 84.9648 438.277 85.2383 438.277 85.5117C438.277 85.7461 438.219 85.9805 438.102 86.2148C438.336 86.3711 438.512 86.5859 438.629 86.8594C438.785 87.1328 438.902 87.4258 438.98 87.7383C439.098 88.0117 439.195 88.3047 439.273 88.6172C439.352 88.8906 439.469 89.1445 439.625 89.3789C440.094 89.3398 440.504 89.125 440.855 88.7344C441.207 88.3438 441.52 87.8945 441.793 87.3867C442.105 86.8398 442.379 86.3125 442.613 85.8047C442.887 85.2578 443.199 84.8281 443.551 84.5156C443.59 84.0859 443.668 83.6758 443.785 83.2852C443.941 82.8555 444.02 82.4258 444.02 81.9961C444.41 81.332 444.762 80.707 445.074 80.1211C445.387 79.5352 445.582 78.832 445.66 78.0117C445.855 77.8555 445.973 77.7383 446.012 77.6602C446.051 77.543 446.227 77.5234 446.539 77.6016C446.539 76.5469 446.695 75.5312 447.008 74.5547C447.359 73.5391 447.828 72.582 448.414 71.6836C448.492 70.7852 448.668 69.8867 448.941 68.9883C449.254 68.0508 449.605 67.1328 449.996 66.2344C450.113 65.9609 450.27 65.6484 450.465 65.2969C450.66 64.9062 450.758 64.5547 450.758 64.2422C450.758 64.0859 450.719 63.9492 450.641 63.832C450.602 63.6758 450.582 63.5195 450.582 63.3633C450.582 63.0508 450.699 62.7773 450.934 62.543C451.168 62.3086 451.383 62.0742 451.578 61.8398C451.578 60.9414 451.676 60.043 451.871 59.1445C452.066 58.2461 452.457 57.4648 453.043 56.8008C453.238 55.4727 453.492 54.1836 453.805 52.9336C454.117 51.6445 454.566 50.4141 455.152 49.2422H457.262C457.262 48.5 457.594 48.1289 458.258 48.1289C458.648 48.1289 459.078 48.2266 459.547 48.4219C459.859 49.2812 460.074 50.2578 460.191 51.3516C460.348 52.4062 460.426 53.3828 460.426 54.2812ZM497.398 58.7344V58.9688C497.125 59.0469 496.988 59.2422 496.988 59.5547C496.559 59.75 496.109 59.9062 495.641 60.0234C495.172 60.1016 494.723 60.2383 494.293 60.4336C493.863 60.3945 493.414 60.375 492.945 60.375C492.516 60.3359 492.086 60.3164 491.656 60.3164C490.484 60.3164 489.312 60.3555 488.141 60.4336C486.969 60.5117 485.797 60.5117 484.625 60.4336C484.078 60.7461 483.473 61 482.809 61.1953C482.184 61.3516 481.578 61.4297 480.992 61.4297C480.523 61.4297 480.113 61.3711 479.762 61.2539C478.824 61.7227 477.789 62.1133 476.656 62.4258C475.562 62.7383 474.449 63.0508 473.316 63.3633C472.184 63.6367 471.09 63.9688 470.035 64.3594C469.02 64.7109 468.121 65.2188 467.34 65.8828C467.262 66.4297 467.203 66.9766 467.164 67.5234C467.125 68.0312 467.105 68.5391 467.105 69.0469C467.105 69.5938 467.125 70.1016 467.164 70.5703C467.242 71.0391 467.379 71.5078 467.574 71.9766C467.77 72.0547 467.984 72.1133 468.219 72.1523C468.492 72.1914 468.727 72.2109 468.922 72.2109C469.117 72.2109 469.312 72.1914 469.508 72.1523C469.703 72.0742 469.84 71.9375 469.918 71.7422C470.504 71.6641 471.09 71.6445 471.676 71.6836C472.262 71.6836 472.848 71.6836 473.434 71.6836C474.02 71.6836 474.586 71.6641 475.133 71.625C475.719 71.5859 476.285 71.4883 476.832 71.332C477.457 71.1758 478.062 71.0781 478.648 71.0391C479.273 71 479.879 70.9609 480.465 70.9219C481.051 70.8828 481.656 70.8242 482.281 70.7461C482.906 70.6289 483.551 70.4141 484.215 70.1016C484.723 70.2969 485.23 70.3945 485.738 70.3945C486.285 70.3945 486.812 70.4336 487.32 70.5117C487.594 70.707 487.809 70.9219 487.965 71.1562C488.16 71.3906 488.258 71.6641 488.258 71.9766C488.258 72.5234 488.062 73.0703 487.672 73.6172C487.281 74.1641 486.969 74.6719 486.734 75.1406H486.09C485.152 75.1406 484.234 75.2773 483.336 75.5508C482.477 75.7852 481.598 76.0781 480.699 76.4297C479.84 76.7422 478.961 77.0352 478.062 77.3086C477.203 77.543 476.305 77.6602 475.367 77.6602C475.211 77.6602 475.113 77.7578 475.074 77.9531C475.074 78.1094 475.035 78.2266 474.957 78.3047C474.762 78.2656 474.469 78.2461 474.078 78.2461C473.18 78.2461 472.32 78.3438 471.5 78.5391C470.68 78.7344 469.84 78.832 468.98 78.832C468.746 78.832 468.512 78.832 468.277 78.832C468.043 78.793 467.809 78.7539 467.574 78.7148C467.379 79.0273 467.125 79.2422 466.812 79.3594C466.5 79.4375 466.207 79.5938 465.934 79.8281C465.816 80.1797 465.738 80.6094 465.699 81.1172C465.699 81.625 465.68 82.1523 465.641 82.6992C465.641 83.207 465.602 83.6953 465.523 84.1641C465.445 84.6328 465.289 85.0039 465.055 85.2773C465.094 85.4727 465.25 85.5508 465.523 85.5117C465.797 85.4336 465.934 85.5508 465.934 85.8633C465.934 86.2148 465.895 86.5859 465.816 86.9766C465.738 87.3672 465.699 87.7578 465.699 88.1484C465.699 88.8906 465.777 89.7109 465.934 90.6094C466.129 91.4688 466.402 92.2695 466.754 93.0117C467.145 93.7539 467.652 94.3789 468.277 94.8867C468.902 95.3555 469.684 95.5898 470.621 95.5898C471.246 95.5898 471.832 95.4727 472.379 95.2383C472.926 95.0039 473.375 94.6133 473.727 94.0664L474.02 94.0078C474.176 94.0078 474.312 94.0273 474.43 94.0664C474.586 94.1055 474.742 94.125 474.898 94.125C475.133 94.125 475.426 93.9883 475.777 93.7148C476.168 93.4023 476.578 93.0508 477.008 92.6602C477.477 92.2695 477.945 91.8984 478.414 91.5469C478.883 91.1562 479.332 90.8828 479.762 90.7266C480.035 90.1797 480.289 89.6328 480.523 89.0859C480.797 88.5391 481.188 88.1094 481.695 87.7969V86.0977C482.086 85.668 482.496 85.2773 482.926 84.9258C483.395 84.5742 483.746 84.125 483.98 83.5781C484.176 83.6562 484.352 83.7148 484.508 83.7539C484.703 83.793 484.898 83.8125 485.094 83.8125C485.289 83.8125 485.484 83.793 485.68 83.7539C485.914 83.7148 486.129 83.6562 486.324 83.5781C486.637 84.0078 486.871 84.4961 487.027 85.043C487.223 85.5508 487.457 86.0391 487.73 86.5078C487.379 87.2109 486.969 88.0508 486.5 89.0273C486.031 90.0039 485.523 90.9805 484.977 91.957C484.43 92.9336 483.844 93.8711 483.219 94.7695C482.633 95.6289 482.047 96.293 481.461 96.7617C481.344 96.8789 481.09 97.0156 480.699 97.1719C480.27 97.4844 479.879 97.7773 479.527 98.0508C479.176 98.3633 478.844 98.7148 478.531 99.1055C477.398 99.457 476.305 99.9258 475.25 100.512C474.234 101.098 473.219 101.664 472.203 102.211C471.734 102.094 471.227 102.035 470.68 102.035C470.211 102.035 469.742 102.055 469.273 102.094C468.805 102.172 468.297 102.211 467.75 102.211C467.594 102.016 467.359 101.879 467.047 101.801C466.773 101.762 466.676 101.566 466.754 101.215C465.426 101.137 464.352 100.766 463.531 100.102C462.711 99.4766 462.008 98.6953 461.422 97.7578C460.875 96.8203 460.426 95.8047 460.074 94.7109C459.723 93.6172 459.352 92.5625 458.961 91.5469V91.3711C458.961 91.1758 459.039 91.0586 459.195 91.0195C459.352 90.9805 459.43 90.8633 459.43 90.668C459.43 90.5898 459.41 90.5312 459.371 90.4922C459.254 90.0625 459.156 89.6914 459.078 89.3789C459 89.0664 458.961 88.6953 458.961 88.2656C458.961 87.6406 459 87.0352 459.078 86.4492C459.156 85.8242 459.195 85.1992 459.195 84.5742C459.195 83.9492 459.117 83.4023 458.961 82.9336C459.117 82.7383 459.254 82.4844 459.371 82.1719C459.449 81.8203 459.508 81.4688 459.547 81.1172C459.586 80.7656 459.605 80.4141 459.605 80.0625C459.645 79.7109 459.703 79.3984 459.781 79.125C459.625 78.6953 459.488 78.3242 459.371 78.0117C459.254 77.6602 459.195 77.25 459.195 76.7812V76.3711C459.586 75.707 459.918 75.0234 460.191 74.3203C460.465 73.6172 460.758 72.8945 461.07 72.1523V71.9766C461.07 70.8438 461.031 69.7109 460.953 68.5781C460.875 67.4453 460.836 66.3125 460.836 65.1797V64.0664C460.836 63.6758 460.855 63.3047 460.895 62.9531C461.207 62.7969 461.441 62.582 461.598 62.3086C461.754 62.0352 461.988 61.8203 462.301 61.6641H464.234L464.586 61.0781C464.703 60.8828 464.781 60.668 464.82 60.4336C465.25 60.3164 465.66 60.1602 466.051 59.9648C466.48 59.7305 466.871 59.4961 467.223 59.2617C467.77 58.9492 468.258 58.6758 468.688 58.4414C469.156 58.168 469.605 57.9531 470.035 57.7969C470.504 57.6016 470.992 57.4453 471.5 57.3281C472.008 57.2109 472.594 57.1133 473.258 57.0352C473.57 57.0352 473.766 56.9766 473.844 56.8594C473.961 56.7422 474.117 56.6055 474.312 56.4492C474.781 56.5273 475.25 56.6055 475.719 56.6836C476.188 56.7227 476.656 56.7422 477.125 56.7422C478.062 56.7422 478.941 56.5664 479.762 56.2148C480.934 56.2148 482.086 56.1953 483.219 56.1562C484.391 56.1172 485.562 56.0977 486.734 56.0977C487.75 56.0977 488.766 56.1367 489.781 56.2148C490.797 56.293 491.793 56.4297 492.77 56.625C493.121 56.5078 493.512 56.4492 493.941 56.4492C494.41 56.4492 494.879 56.5078 495.348 56.625C495.855 56.7031 496.344 56.7031 496.812 56.625C496.852 57.0547 496.949 57.4258 497.105 57.7383C497.301 58.0117 497.398 58.3438 497.398 58.7344ZM526.52 80.9414C526.52 81.3711 526.363 81.7031 526.051 81.9375C525.738 82.1328 525.582 82.4062 525.582 82.7578C525.582 82.9141 525.66 83.1094 525.816 83.3438C525.27 83.3438 524.898 83.5195 524.703 83.8711C524.508 84.2227 524.312 84.6133 524.117 85.043H523.355C523.16 85.043 523.004 85.082 522.887 85.1602C522.77 85.2383 522.652 85.3555 522.535 85.5117C522.457 85.6289 522.34 85.8242 522.184 86.0977C521.441 86.2539 520.719 86.5078 520.016 86.8594C519.352 87.1719 518.688 87.5234 518.023 87.9141C517.398 88.2656 516.754 88.6367 516.09 89.0273C515.426 89.3789 514.742 89.6719 514.039 89.9062C513.688 90.4922 513.18 90.9609 512.516 91.3125H512.34C512.145 91.3516 511.969 91.332 511.812 91.2539C511.695 91.1367 511.539 91.0781 511.344 91.0781C511.227 91.0781 511.148 91.0977 511.109 91.1367C509.938 91.918 508.629 92.3086 507.184 92.3086C506.793 92.3086 506.422 92.2891 506.07 92.25C505.719 92.1719 505.348 92.1328 504.957 92.1328C504.84 92.1328 504.762 92.1719 504.723 92.25L504.605 92.4844C504.566 92.5625 504.508 92.6406 504.43 92.7188C504.391 92.7969 504.254 92.8359 504.02 92.8359C503.59 92.8359 503.16 92.7773 502.73 92.6602C502.301 92.543 501.852 92.5234 501.383 92.6016C500.484 92.0938 499.781 91.6055 499.273 91.1367C498.766 90.668 498.297 89.9648 497.867 89.0273C497.672 88.5977 497.398 88.1875 497.047 87.7969C496.734 87.4062 496.5 86.9766 496.344 86.5078C496.305 86.3516 496.246 86.0781 496.168 85.6875C496.09 85.2578 496.012 84.8086 495.934 84.3398C495.855 83.8711 495.777 83.4219 495.699 82.9922C495.66 82.5625 495.641 82.2695 495.641 82.1133C495.641 81.6445 495.66 81.1953 495.699 80.7656C495.777 80.2969 495.855 79.8281 495.934 79.3594C496.168 77.875 496.324 76.3906 496.402 74.9062C496.52 73.3828 496.852 71.918 497.398 70.5117C497.32 70.082 497.281 69.6719 497.281 69.2812V67.9922C497.281 67.25 497.184 66.625 496.988 66.1172C497.301 65.6094 497.457 65.043 497.457 64.418C497.457 63.7148 497.164 63.3047 496.578 63.1875V63.0117C496.578 62.1914 496.305 61.5469 495.758 61.0781C495.758 59.7109 496.09 58.6953 496.754 58.0312C497.457 57.3281 498.375 56.7227 499.508 56.2148C499.664 55.9805 499.723 55.7852 499.684 55.6289C499.957 55.707 500.211 55.7852 500.445 55.8633C500.68 55.9414 500.914 55.9805 501.148 55.9805C501.539 55.9805 501.891 55.9219 502.203 55.8047C502.32 56.2734 502.613 56.5664 503.082 56.6836C503.59 56.7617 504 56.8789 504.312 57.0352V57.7969C504.312 59.0078 504.605 60.1602 505.191 61.2539C505.035 61.5664 504.938 61.8984 504.898 62.25C504.859 62.6016 504.84 62.9336 504.84 63.2461C504.84 63.7148 504.859 64.1836 504.898 64.6523C504.938 65.1211 504.957 65.5703 504.957 66C504.957 66.4688 504.898 66.9375 504.781 67.4062C504.703 67.875 504.488 68.2852 504.137 68.6367C504.098 69.1445 504.059 69.7305 504.02 70.3945C504.02 71.0195 503.98 71.6641 503.902 72.3281C503.863 72.9922 503.766 73.6367 503.609 74.2617C503.453 74.8867 503.219 75.3945 502.906 75.7852C502.867 76.3711 502.828 76.9766 502.789 77.6016C502.789 78.1875 502.789 78.7539 502.789 79.3008C502.789 80.1602 502.828 81.1758 502.906 82.3477C503.023 83.5195 503.297 84.4961 503.727 85.2773C503.922 85.5898 504.293 85.8242 504.84 85.9805C505.426 86.1367 505.895 86.2148 506.246 86.2148C506.676 86.2148 507.105 86.1562 507.535 86.0391C508.004 85.8828 508.336 85.6289 508.531 85.2773C508.766 85.3164 508.922 85.4336 509 85.6289C509.078 85.8242 509.215 85.9805 509.41 86.0977C511.637 85.1602 513.863 84.2617 516.09 83.4023C518.316 82.543 520.504 81.5469 522.652 80.4141C522.965 80.5703 523.297 80.6484 523.648 80.6484C524.039 80.6484 524.43 80.6094 524.82 80.5312C525.211 80.4531 525.602 80.4141 525.992 80.4141H526.402C526.48 80.6484 526.52 80.8242 526.52 80.9414ZM562.672 68.6367C562.516 69.0273 562.359 69.3984 562.203 69.75C562.047 70.1016 561.93 70.4922 561.852 70.9219C561.578 71.1172 561.266 71.2734 560.914 71.3906C560.602 71.4688 560.27 71.5664 559.918 71.6836C559.566 71.7617 559.234 71.8789 558.922 72.0352C558.648 72.1523 558.434 72.3477 558.277 72.6211C558.16 73.207 558.102 73.7539 558.102 74.2617C558.102 74.9258 558.219 75.4922 558.453 75.9609C558.336 76.3125 558.258 76.6836 558.219 77.0742C558.18 77.4648 558.16 77.8359 558.16 78.1875C558.16 79.4766 558.316 80.7656 558.629 82.0547C558.941 83.3047 559.117 84.5742 559.156 85.8633C559.156 86.0586 559.137 86.2734 559.098 86.5078C559.059 86.7422 559.039 86.957 559.039 87.1523C559.039 87.9727 559.352 88.5195 559.977 88.793C559.859 88.9883 559.801 89.1641 559.801 89.3203C559.801 89.6328 559.84 89.9062 559.918 90.1406C559.996 90.375 560.016 90.6289 559.977 90.9023C560.172 91.293 560.367 91.6445 560.562 91.957C560.758 92.2305 560.895 92.582 560.973 93.0117C560.699 93.5586 560.367 94.0664 559.977 94.5352C559.586 94.9648 559.312 95.5117 559.156 96.1758C559 96.1367 558.824 96.1172 558.629 96.1172C558.355 96.1172 558.141 96.1758 557.984 96.293C557.828 96.4102 557.691 96.5469 557.574 96.7031C557.496 96.8984 557.398 97.0742 557.281 97.2305C557.164 97.4258 557.008 97.5625 556.812 97.6406H556.637C556.441 97.6797 556.266 97.6602 556.109 97.582C555.992 97.543 555.875 97.5234 555.758 97.5234C555.68 97.5234 555.523 97.5625 555.289 97.6406C554.977 97.25 554.762 96.7812 554.645 96.2344C554.527 95.7266 554.469 95.2188 554.469 94.7109C554.469 94.1641 554.547 93.6758 554.703 93.2461C554.273 92.8945 554 92.3672 553.883 91.6641C553.805 90.9609 553.707 90.375 553.59 89.9062C553.277 88.4609 552.906 87.0547 552.477 85.6875C552.086 84.3203 551.852 82.9141 551.773 81.4688C551.734 80.9219 551.715 80.3945 551.715 79.8867V76.8398C551.715 76.332 551.734 75.8438 551.773 75.375C551.773 75.0234 551.793 74.6914 551.832 74.3789C551.91 74.0273 551.949 73.6758 551.949 73.3242C551.949 72.8555 551.793 72.4062 551.48 71.9766C548.707 72.0938 546.07 72.6016 543.57 73.5C541.109 74.3594 538.648 75.3945 536.188 76.6055C536.031 77.5039 535.934 78.3828 535.895 79.2422C535.855 80.1016 535.836 80.9805 535.836 81.8789V84.457C535.836 85.4336 535.875 86.2539 535.953 86.918C536.148 88.0508 536.715 88.9297 537.652 89.5547C538.629 90.1406 539.605 90.5898 540.582 90.9023C540.543 91.4883 540.426 91.9961 540.23 92.4258C540.035 92.8164 539.781 93.1875 539.469 93.5391C539.195 93.8516 538.883 94.1641 538.531 94.4766C538.18 94.7891 537.828 95.1406 537.477 95.5312C537.164 95.3359 536.852 95.1992 536.539 95.1211C536.227 95.043 535.895 95.0039 535.543 95.0039C535.191 94.9648 534.84 94.9258 534.488 94.8867C534.137 94.8477 533.785 94.7695 533.434 94.6523L532.145 92.8945C531.715 92.3086 531.246 91.7227 530.738 91.1367V90.6094C530.738 89.5547 530.543 88.5391 530.152 87.5625C529.762 86.5859 529.469 85.5898 529.273 84.5742C529.391 84.2227 529.469 83.8711 529.508 83.5195C529.547 83.168 529.566 82.7969 529.566 82.4062C529.566 81.625 529.527 80.8633 529.449 80.1211C529.41 79.3789 529.43 78.6367 529.508 77.8945H529.215C528.863 77.8945 528.492 77.9922 528.102 78.1875C527.711 78.3438 527.32 78.5391 526.93 78.7734C526.578 78.9688 526.227 79.1641 525.875 79.3594C525.562 79.5156 525.289 79.5938 525.055 79.5938C524.938 79.5938 524.82 79.5742 524.703 79.5352C524.586 79.4961 524.449 79.4766 524.293 79.4766C524.098 79.4766 523.863 79.5547 523.59 79.7109C523.316 79.8672 523.023 80.043 522.711 80.2383C522.359 80.3945 522.008 80.5508 521.656 80.707C521.305 80.8633 520.953 80.9414 520.602 80.9414C520.055 80.9414 519.508 80.707 518.961 80.2383C518.883 79.9258 518.863 79.6328 518.902 79.3594C518.902 79.0859 518.902 78.793 518.902 78.4805C518.902 78.168 518.844 77.8359 518.727 77.4844C519 76.9766 519.371 76.5859 519.84 76.3125C520.27 76 520.738 75.7266 521.246 75.4922C521.715 75.2188 522.203 74.9648 522.711 74.7305C523.219 74.457 523.648 74.1055 524 73.6758H524.352C524.898 73.6758 525.387 73.5586 525.816 73.3242C526.285 73.0898 526.812 72.9922 527.398 73.0312C527.594 72.9531 527.73 72.6602 527.809 72.1523L528.043 72.2109C528.902 72.2109 529.664 71.918 530.328 71.332C530.758 68.9102 531.109 66.4688 531.383 64.0078C531.656 61.5469 531.793 59.0859 531.793 56.625C531.793 56.3906 531.715 56.1562 531.559 55.9219C531.48 55.6094 531.441 55.3164 531.441 55.043V54.1641C531.441 53.7344 531.461 53.2852 531.5 52.8164C531.539 52.3477 531.637 51.8789 531.793 51.4102C532.184 51.1758 532.594 51.0586 533.023 51.0586C533.531 51.0586 534.02 51.1367 534.488 51.293C534.996 51.4102 535.484 51.5078 535.953 51.5859C536.305 51.9375 536.559 52.3281 536.715 52.7578C536.91 53.1875 537.027 53.6367 537.066 54.1055C537.105 54.5352 537.105 54.9844 537.066 55.4531C537.066 55.8828 537.066 56.3125 537.066 56.7422C537.066 57.6016 537.164 58.4414 537.359 59.2617C537.555 60.082 537.652 60.8828 537.652 61.6641C537.652 61.8594 537.574 62.0156 537.418 62.1328C537.301 62.2109 537.242 62.4648 537.242 62.8945C537.242 63.3242 537.281 63.7734 537.359 64.2422C537.438 64.7109 537.477 65.1797 537.477 65.6484C537.477 66.1953 537.398 66.7617 537.242 67.3477C537.086 67.9336 536.949 68.5 536.832 69.0469C539.176 68.8516 541.578 68.5586 544.039 68.168C546.5 67.7773 548.844 67.1523 551.07 66.293C551.109 66.2148 551.129 66.0977 551.129 65.9414C551.129 65.707 551.109 65.4727 551.07 65.2383C551.031 65.0039 551.012 64.75 551.012 64.4766C551.012 64.0078 551.168 63.6367 551.48 63.3633C551.285 62.2695 551.148 61.1758 551.07 60.082C550.992 58.9883 550.953 57.8945 550.953 56.8008V53.4609C550.953 52.3672 550.934 51.2734 550.895 50.1797C551.207 49.9844 551.539 49.8867 551.891 49.8867C552.32 49.8867 552.711 50.0039 553.062 50.2383C553.453 50.4336 553.902 50.5312 554.41 50.5312C554.762 50.5312 555.055 50.4727 555.289 50.3555C555.719 50.7461 556.012 51.2539 556.168 51.8789C556.324 52.5039 556.461 53.1484 556.578 53.8125C556.695 54.4766 556.812 55.1406 556.93 55.8047C557.086 56.4297 557.379 56.9375 557.809 57.3281L557.867 57.5039C557.867 57.6602 557.789 57.7773 557.633 57.8555C557.477 57.9336 557.398 58.0898 557.398 58.3242V58.5586C557.555 59.1836 557.672 59.8281 557.75 60.4922C557.828 61.1562 557.887 61.8398 557.926 62.543C558.004 63.207 558.102 63.8711 558.219 64.5352C558.336 65.1602 558.551 65.7461 558.863 66.293C559.059 66.2539 559.312 66.2344 559.625 66.2344C560.406 66.2344 561.012 66.5078 561.441 67.0547C561.91 67.5625 562.32 68.0898 562.672 68.6367ZM610.016 91.7227C609.898 92.2695 609.645 92.7188 609.254 93.0703C608.902 93.3828 608.473 93.6367 607.965 93.832C607.457 94.0273 606.93 94.1641 606.383 94.2422C605.875 94.2812 605.406 94.3008 604.977 94.3008C604.781 94.3008 604.586 94.3008 604.391 94.3008C604.234 94.2617 604.059 94.2422 603.863 94.2422C603.668 94.2422 603.57 94.3398 603.57 94.5352C603.57 94.7305 603.473 94.8672 603.277 94.9453C603.082 94.8672 602.887 94.8086 602.691 94.7695C602.496 94.7305 602.301 94.7109 602.105 94.7109C601.832 94.7109 601.559 94.7305 601.285 94.7695C601.051 94.8086 600.816 94.8281 600.582 94.8281C600.27 94.8281 600.035 94.7891 599.879 94.7109C599.762 94.6328 599.645 94.5547 599.527 94.4766C599.449 94.3594 599.352 94.2422 599.234 94.125C599.156 94.0078 599.02 93.9102 598.824 93.832C598.551 93.7148 598.316 93.6953 598.121 93.7734C597.965 93.8516 597.711 93.7344 597.359 93.4219C596.891 93.0312 596.48 92.5625 596.129 92.0156C595.816 91.4297 595.504 90.8242 595.191 90.1992C594.879 89.5742 594.547 88.9492 594.195 88.3242C593.844 87.6992 593.434 87.1523 592.965 86.6836H592.496C591.793 86.6836 591.305 86.9766 591.031 87.5625C590.836 87.4453 590.641 87.3086 590.445 87.1523C590.25 86.957 590.035 86.8008 589.801 86.6836C588.902 86.957 587.965 87.1914 586.988 87.3867C586.012 87.582 585.035 87.6797 584.059 87.6797H583.238C583.004 87.6797 582.75 87.6406 582.477 87.5625C582.086 87.7188 581.734 87.9141 581.422 88.1484C581.109 88.3438 580.758 88.4414 580.367 88.4414C580.133 88.4414 579.859 88.3633 579.547 88.207C579.312 88.207 579.195 88.3047 579.195 88.5C579.234 88.6953 579.117 88.793 578.844 88.793H578.316C577.77 88.793 577.223 88.8125 576.676 88.8516C576.168 88.8906 575.641 88.9102 575.094 88.9102C574.352 88.9102 573.59 88.8125 572.809 88.6172C572.613 88.7344 572.398 88.793 572.164 88.793C572.008 88.8711 571.891 89.0078 571.812 89.2031C571.734 89.3594 571.656 89.5156 571.578 89.6719C571.5 89.7891 571.383 89.9062 571.227 90.0234C571.109 90.1016 570.934 90.1211 570.699 90.082C570.621 90.5508 570.426 90.9219 570.113 91.1953C569.801 91.4688 569.645 91.8789 569.645 92.4258C569.215 92.6602 568.863 92.9531 568.59 93.3047C568.316 93.6562 568.043 94.0273 567.77 94.418C567.496 94.8086 567.203 95.1797 566.891 95.5312C566.617 95.8828 566.266 96.1562 565.836 96.3516C565.641 96.5859 565.582 96.957 565.66 97.4648C565.23 97.8164 564.703 98.1289 564.078 98.4023C563.453 98.6758 562.867 98.8125 562.32 98.8125C561.188 98.8125 560.406 98.207 559.977 96.9961C559.977 96.6055 560.016 96.1953 560.094 95.7656C560.133 95.2969 560.211 94.8672 560.328 94.4766C560.445 94.0469 560.621 93.6758 560.855 93.3633C561.09 93.0117 561.422 92.7578 561.852 92.6016C561.852 92.25 561.734 92.0156 561.5 91.8984C561.266 91.7422 561.168 91.4883 561.207 91.1367C562.262 90.6289 563.18 89.9648 563.961 89.1445C564.742 88.3242 565.445 87.4648 566.07 86.5664C566.734 85.6289 567.398 84.6914 568.062 83.7539C568.727 82.8164 569.469 81.9766 570.289 81.2344V80.0039C571.461 78.7539 572.223 77.3477 572.574 75.7852C573.004 75.707 573.277 75.5117 573.395 75.1992C573.551 74.8867 573.629 74.5156 573.629 74.0859C573.824 74.0859 573.941 74.0078 573.98 73.8516C574.059 73.6562 574.234 73.5977 574.508 73.6758C574.859 72.7383 575.25 71.8789 575.68 71.0977C576.109 70.3164 576.539 69.5352 576.969 68.7539C577.398 67.9336 577.77 67.0938 578.082 66.2344C578.434 65.375 578.688 64.418 578.844 63.3633C579.391 63.3242 579.684 63.0703 579.723 62.6016C579.801 62.0938 579.879 61.6445 579.957 61.2539C580.543 60.707 580.973 60.0625 581.246 59.3203C581.559 58.5781 581.832 57.8164 582.066 57.0352C582.301 56.2148 582.555 55.4141 582.828 54.6328C583.141 53.8125 583.57 53.0898 584.117 52.4648V52.2891C584.117 52.0938 584.039 51.9766 583.883 51.9375C583.727 51.8594 583.648 51.7227 583.648 51.5273C583.688 51.4883 583.707 51.4492 583.707 51.4102C584.176 51.2148 584.527 50.9023 584.762 50.4727C584.996 50.0039 585.348 49.6719 585.816 49.4766C586.637 50.1406 587.359 50.5508 587.984 50.707C588.609 50.8242 589.43 50.9219 590.445 51C590.953 51.5469 591.227 52.2109 591.266 52.9922C591.344 53.7344 591.48 54.4766 591.676 55.2188C591.988 56.4688 592.32 57.6992 592.672 58.9102C593.062 60.082 593.355 61.293 593.551 62.543C593.668 63.2852 593.883 63.9883 594.195 64.6523C594.508 65.3164 594.723 66 594.84 66.7031C594.918 67.25 594.918 67.875 594.84 68.5781C594.762 69.2422 594.84 69.8281 595.074 70.3359L595.484 71.2734C595.68 71.7031 595.836 72.1523 595.953 72.6211C596.109 73.0898 596.246 73.5586 596.363 74.0273C596.676 75.1992 596.949 76.4688 597.184 77.8359C597.457 79.1641 597.867 80.375 598.414 81.4688C598.609 81.8594 598.902 82.1328 599.293 82.2891C599.723 82.4453 600.191 82.5625 600.699 82.6406C601.207 82.6797 601.695 82.6992 602.164 82.6992C602.672 82.6602 603.102 82.6406 603.453 82.6406H604.039C604.273 82.6406 604.508 82.6797 604.742 82.7578C604.898 83.0703 604.977 83.3438 604.977 83.5781C604.977 84.0469 604.82 84.418 604.508 84.6914C604.195 84.9648 604.039 85.2773 604.039 85.6289C604.039 85.8242 604.117 86.0391 604.273 86.2734C604.117 86.2344 603.883 86.2148 603.57 86.2148C602.672 86.2148 601.793 86.3711 600.934 86.6836C601.246 87.3477 601.656 87.9141 602.164 88.3828C602.711 88.8125 603.277 89.2227 603.863 89.6133C604.254 89.3008 604.664 89.1445 605.094 89.1445C605.562 89.1445 605.992 89.2617 606.383 89.4961C606.812 89.6914 607.262 89.7891 607.73 89.7891C608.082 89.7891 608.336 89.7305 608.492 89.6133C608.805 89.9648 609.059 90.3359 609.254 90.7266C609.449 91.0781 609.703 91.4102 610.016 91.7227ZM591.676 82.3477C591.598 81.6836 591.461 81.2148 591.266 80.9414C591.109 80.6289 590.973 80.2578 590.855 79.8281C590.699 79.2812 590.582 78.6953 590.504 78.0703C590.465 77.4453 590.387 76.8398 590.27 76.2539C589.996 74.9258 589.684 73.5977 589.332 72.2695C589.02 70.9414 588.609 69.6523 588.102 68.4023C588.258 68.168 588.336 67.9531 588.336 67.7578V67.582C587.984 67.1914 587.73 66.7227 587.574 66.1758C587.418 65.5898 587.262 65.0234 587.105 64.4766C586.988 63.8906 586.812 63.3633 586.578 62.8945C586.383 62.3867 586.051 61.9766 585.582 61.6641C585.465 61.8984 585.406 62.1719 585.406 62.4844C585.406 62.7578 585.426 63.0117 585.465 63.2461C585.543 63.4805 585.582 63.7344 585.582 64.0078C585.191 64.2031 584.898 64.5156 584.703 64.9453C584.547 65.3359 584.273 65.6484 583.883 65.8828C583.57 67.1328 583.121 68.3242 582.535 69.457C581.949 70.5508 581.324 71.6445 580.66 72.7383C580.035 73.832 579.43 74.9453 578.844 76.0781C578.258 77.1719 577.789 78.3242 577.438 79.5352C576.93 79.8867 576.578 80.3359 576.383 80.8828C576.227 81.4297 576.148 81.9766 576.148 82.5234C576.5 82.7188 576.891 82.8359 577.32 82.875C577.789 82.875 578.238 82.875 578.668 82.875C579.098 82.875 579.508 82.9141 579.898 82.9922C580.289 83.0703 580.641 83.2656 580.953 83.5781C581.461 83.4219 582.008 83.3242 582.594 83.2852C583.219 83.207 583.727 83.0312 584.117 82.7578C584.898 83.0312 585.738 83.168 586.637 83.168C587.105 83.168 587.555 83.1289 587.984 83.0508C588.453 82.9727 588.902 82.875 589.332 82.7578C589.684 82.8359 589.957 82.9727 590.152 83.168C590.348 83.3242 590.641 83.3828 591.031 83.3438C591.227 83.1875 591.344 83.0312 591.383 82.875C591.422 82.6797 591.52 82.5039 591.676 82.3477Z" fill="#341A7E"/>
</svg>
